<svg id="Layer_1" style="enable-background:new 0 0 30 30;" version="1.1" viewBox="0 0 30 30" xml:space="preserve" xmlns="http://www.w3.org/2000/svg" xmlns:xlink="http://www.w3.org/1999/xlink"><style type="text/css">
	.st0{fill:#FFCA00;}
	.st1{opacity:0.53;fill:#F9E52F;}
	.st2{opacity:0.61;fill:#F5A800;}
	.st3{opacity:0.63;fill:#FBE68F;}
</style><g><path d="M13.788,29.896c-0.031,0-0.062-0.004-0.093-0.012c-0.158-0.043-0.265-0.189-0.259-0.352l0.027-0.782   c0.003-0.092,0.01-0.186,0.018-0.279c0.015-0.174,0.029-0.338,0.004-0.475c-0.052-0.287-0.098-0.575-0.144-0.865   c-0.132-0.835-0.257-1.623-0.53-2.383c-0.015-0.04-0.029-0.082-0.043-0.122c-0.419,1.5-1.716,2.719-2.97,3.897l-0.202,0.191   c-0.12,0.111-0.3,0.128-0.436,0.037c-0.137-0.09-0.193-0.262-0.138-0.415l0.268-0.735c0.031-0.088,0.067-0.174,0.104-0.261   c0.067-0.16,0.131-0.313,0.15-0.45c0.039-0.288,0.085-0.576,0.13-0.865c0.132-0.836,0.257-1.626,0.232-2.433   c-0.001-0.042-0.002-0.086-0.003-0.128c-0.862,1.295-2.469,2.052-4.023,2.785l-0.256,0.121c-0.149,0.068-0.324,0.029-0.426-0.098   c-0.102-0.128-0.103-0.308-0.002-0.437l0.482-0.618c0.057-0.073,0.117-0.143,0.178-0.213c0.114-0.133,0.222-0.258,0.282-0.383   c0.126-0.263,0.259-0.522,0.391-0.782c0.384-0.755,0.747-1.467,0.973-2.242c0.012-0.041,0.024-0.083,0.037-0.123   c-1.222,0.967-2.988,1.19-4.696,1.407l-0.273,0.034c-0.164,0.022-0.317-0.073-0.375-0.224c-0.058-0.153-0.003-0.326,0.132-0.417   l0.649-0.439c0.076-0.051,0.156-0.1,0.236-0.149c0.149-0.091,0.29-0.176,0.386-0.276c0.201-0.211,0.408-0.417,0.614-0.624   c0.598-0.598,1.163-1.163,1.616-1.831c0.025-0.035,0.05-0.071,0.075-0.106c-1.461,0.54-3.211,0.211-4.903-0.112l-0.27-0.051   c-0.16-0.03-0.279-0.166-0.287-0.33c-0.008-0.163,0.097-0.31,0.254-0.355l0.671-0.193c0.172-0.05,0.264-0.072,0.357-0.093   c0.169-0.039,0.328-0.077,0.449-0.143c0.258-0.139,0.519-0.272,0.781-0.405c0.752-0.384,1.463-0.746,2.099-1.239   c0.034-0.027,0.068-0.053,0.103-0.079c-1.546,0.07-3.115-0.791-4.623-1.619l-0.244-0.134c-0.143-0.079-0.214-0.245-0.171-0.402   c0.043-0.158,0.178-0.294,0.352-0.259l0.783,0.027c0.092,0.003,0.186,0.01,0.279,0.018c0.175,0.015,0.337,0.028,0.475,0.004   c0.287-0.052,0.575-0.098,0.864-0.144c0.836-0.133,1.625-0.258,2.384-0.531c0.04-0.015,0.081-0.029,0.122-0.043   c-1.501-0.42-2.72-1.717-3.899-2.972l-0.189-0.2c-0.112-0.119-0.127-0.3-0.038-0.436C1.339,9.023,1.51,8.967,1.664,9.023   L2.399,9.29c0.087,0.031,0.173,0.067,0.259,0.103c0.161,0.068,0.313,0.132,0.451,0.151c0.289,0.039,0.577,0.085,0.865,0.13   C4.81,9.806,5.596,9.925,6.406,9.906c0.043-0.001,0.086-0.002,0.13-0.003C5.239,9.041,4.48,7.432,3.747,5.876l-0.12-0.253   c-0.07-0.148-0.029-0.324,0.098-0.426c0.128-0.102,0.309-0.103,0.437-0.003l0.618,0.482c0.073,0.057,0.143,0.118,0.214,0.179   c0.132,0.114,0.257,0.222,0.382,0.282c0.263,0.126,0.523,0.259,0.783,0.391c0.754,0.384,1.466,0.747,2.241,0.972   c0.041,0.012,0.083,0.024,0.124,0.037c-0.966-1.221-1.19-2.985-1.407-4.69L7.082,2.568C7.062,2.406,7.155,2.251,7.308,2.193   C7.46,2.135,7.633,2.19,7.724,2.326l0.438,0.649c0.052,0.076,0.1,0.156,0.149,0.236c0.091,0.149,0.176,0.29,0.276,0.386   c0.211,0.201,0.417,0.408,0.624,0.614c0.598,0.598,1.163,1.163,1.83,1.616c0.036,0.025,0.072,0.05,0.107,0.075   c-0.543-1.46-0.211-3.207,0.111-4.898l0.052-0.275c0.03-0.16,0.167-0.279,0.33-0.287c0.166-0.01,0.31,0.098,0.355,0.255   l0.216,0.752c0.026,0.089,0.048,0.181,0.069,0.272c0.04,0.169,0.078,0.33,0.143,0.452c0.138,0.257,0.272,0.517,0.404,0.778   c0.384,0.753,0.747,1.464,1.24,2.102c0.027,0.034,0.053,0.068,0.079,0.103c-0.064-1.556,0.792-3.115,1.62-4.624l0.133-0.243   c0.078-0.143,0.238-0.216,0.403-0.171c0.157,0.043,0.265,0.188,0.259,0.352l-0.027,0.782c-0.003,0.093-0.011,0.186-0.019,0.279   c-0.015,0.174-0.029,0.338-0.003,0.475c0.052,0.288,0.098,0.579,0.145,0.869c0.132,0.834,0.257,1.621,0.529,2.378   c0.015,0.04,0.029,0.081,0.043,0.122c0.42-1.5,1.717-2.719,2.97-3.897l0.202-0.19c0.12-0.112,0.3-0.127,0.436-0.038   c0.136,0.09,0.193,0.261,0.138,0.414L20.71,2.4c-0.031,0.087-0.068,0.174-0.104,0.261c-0.067,0.161-0.131,0.312-0.15,0.45   c-0.039,0.29-0.085,0.58-0.131,0.87c-0.132,0.834-0.256,1.621-0.231,2.426c0.002,0.043,0.003,0.087,0.003,0.13   c0.862-1.297,2.472-2.055,4.029-2.789l0.252-0.119c0.147-0.069,0.323-0.03,0.426,0.099c0.102,0.127,0.103,0.308,0.002,0.437   l-0.48,0.616c-0.058,0.074-0.118,0.144-0.179,0.214c-0.115,0.132-0.223,0.257-0.283,0.383c-0.127,0.263-0.259,0.523-0.392,0.784   c-0.384,0.754-0.746,1.465-0.971,2.239c-0.012,0.041-0.025,0.083-0.037,0.124c1.221-0.966,2.985-1.19,4.691-1.407l0.277-0.035   c0.174-0.021,0.318,0.073,0.375,0.225c0.058,0.153,0.003,0.325-0.132,0.417l-0.648,0.438c-0.077,0.052-0.157,0.1-0.237,0.149   c-0.15,0.091-0.29,0.176-0.386,0.276c-0.202,0.211-0.407,0.416-0.613,0.622c-0.599,0.599-1.165,1.165-1.619,1.833   c-0.025,0.037-0.051,0.073-0.078,0.108c0,0,0.001,0,0.002-0.001c1.46-0.543,3.208-0.211,4.898,0.111l0.276,0.053   c0.16,0.03,0.278,0.167,0.286,0.33c0.008,0.163-0.098,0.31-0.255,0.355l-0.752,0.216c-0.09,0.026-0.18,0.048-0.272,0.069   c-0.17,0.04-0.331,0.077-0.453,0.143c-0.258,0.139-0.518,0.272-0.779,0.405c-0.753,0.384-1.464,0.746-2.1,1.24   c-0.034,0.027-0.07,0.053-0.104,0.079c1.554-0.064,3.116,0.791,4.624,1.62l0.244,0.134c0.144,0.079,0.214,0.245,0.171,0.403   s-0.19,0.241-0.352,0.259l-0.782-0.027c-0.092-0.003-0.186-0.011-0.279-0.019c-0.174-0.015-0.341-0.029-0.475-0.003   c-0.288,0.052-0.579,0.098-0.87,0.145c-0.833,0.132-1.62,0.257-2.378,0.529l0,0c-0.04,0.015-0.082,0.029-0.123,0.042   c1.5,0.42,2.719,1.716,3.897,2.969l0.192,0.204c0.112,0.119,0.128,0.299,0.038,0.435c-0.09,0.138-0.264,0.197-0.414,0.139   l-0.739-0.268c-0.086-0.031-0.173-0.068-0.261-0.104c-0.16-0.067-0.312-0.131-0.448-0.15c-0.29-0.039-0.58-0.085-0.871-0.131   c-0.834-0.132-1.622-0.254-2.427-0.231c-0.043,0.002-0.088,0.003-0.131,0.002l0,0c1.298,0.862,2.056,2.471,2.789,4.028l0.12,0.254   c0.07,0.148,0.029,0.324-0.098,0.426c-0.129,0.101-0.31,0.103-0.438,0.002l-0.616-0.48c-0.074-0.058-0.144-0.118-0.214-0.179   c-0.132-0.114-0.258-0.223-0.384-0.283c-0.263-0.127-0.522-0.259-0.783-0.392c-0.754-0.384-1.466-0.746-2.24-0.971   c-0.042-0.013-0.084-0.026-0.125-0.039c0.968,1.222,1.192,2.989,1.409,4.698l0.034,0.272c0.022,0.162-0.072,0.318-0.224,0.375   c-0.156,0.059-0.327,0.003-0.417-0.132l-0.438-0.648c-0.052-0.077-0.1-0.157-0.15-0.237c-0.091-0.15-0.176-0.29-0.275-0.387   c-0.211-0.201-0.416-0.406-0.622-0.612c-0.599-0.599-1.165-1.165-1.834-1.619c-0.037-0.025-0.073-0.052-0.108-0.08   c0.001,0.001,0.001,0.002,0.002,0.004c0.543,1.462,0.211,3.211-0.112,4.903l-0.051,0.272c-0.03,0.159-0.166,0.278-0.33,0.286   c-0.153,0.009-0.31-0.096-0.355-0.254l-0.217-0.753c-0.026-0.09-0.047-0.18-0.068-0.272c-0.04-0.17-0.078-0.331-0.143-0.453   c-0.14-0.258-0.273-0.52-0.407-0.782c-0.384-0.752-0.746-1.462-1.238-2.097c-0.027-0.035-0.053-0.07-0.079-0.104   c0.065,1.557-0.792,3.117-1.621,4.626l-0.133,0.242C14.034,29.828,13.914,29.896,13.788,29.896z M12.707,23.469   c0.028,0,0.056,0.004,0.083,0.012l0.217,0.055c0.121,0.033,0.216,0.13,0.248,0.252c0.063,0.242,0.132,0.483,0.218,0.722   c0.295,0.821,0.431,1.68,0.563,2.51c0.045,0.283,0.09,0.567,0.141,0.849c0.01,0.057,0.017,0.114,0.021,0.171   c0.563-1.093,0.99-2.143,0.947-3.169c-0.008-0.186,0.003-0.372,0.015-0.56l0.008-0.139c0.01-0.184,0.161-0.33,0.345-0.332   c0.079-0.002,0.157-0.007,0.235-0.012c0.129,0.001,0.298,0.05,0.367,0.154c0.124,0.189,0.24,0.365,0.37,0.533   c0.533,0.688,0.928,1.461,1.309,2.208c0.131,0.258,0.262,0.514,0.398,0.768c0.029,0.051,0.052,0.103,0.073,0.155   c0.198-1.213,0.279-2.344-0.078-3.305c-0.053-0.143-0.092-0.291-0.131-0.441l-0.04-0.152c-0.049-0.177,0.046-0.363,0.22-0.425   l0.112-0.04c0.081-0.028,0.161-0.055,0.24-0.089c0.116-0.047,0.252-0.031,0.352,0.047c0.069,0.054,0.134,0.112,0.198,0.17   c0.069,0.062,0.136,0.124,0.212,0.177c0.724,0.492,1.34,1.108,1.936,1.703c0.202,0.202,0.403,0.404,0.61,0.601   c0.042,0.04,0.081,0.083,0.117,0.126c-0.187-1.215-0.459-2.317-1.096-3.119c-0.083-0.104-0.155-0.218-0.228-0.332l-0.089-0.138   c-0.102-0.152-0.07-0.358,0.074-0.472c0.096-0.076,0.189-0.156,0.281-0.237c0.095-0.086,0.229-0.111,0.35-0.068l0.14,0.051   c0.115,0.042,0.229,0.085,0.348,0.119c0.836,0.243,1.611,0.637,2.361,1.019c0.256,0.13,0.512,0.261,0.769,0.385   c0.053,0.026,0.102,0.053,0.151,0.084c-0.553-1.098-1.152-2.062-2.005-2.627c-0.11-0.073-0.211-0.156-0.313-0.24l-0.125-0.101   c-0.144-0.112-0.177-0.315-0.08-0.467c0.067-0.105,0.132-0.213,0.195-0.322c0.066-0.112,0.19-0.174,0.317-0.175l0.121,0.004   c0.127,0.005,0.255,0.01,0.383,0.007c0.873-0.03,1.73,0.109,2.56,0.239c0.285,0.045,0.57,0.091,0.855,0.129   c0.058,0.008,0.114,0.019,0.168,0.032c-0.865-0.873-1.732-1.603-2.719-1.88c-0.137-0.037-0.271-0.09-0.404-0.142l-0.147-0.057   c-0.168-0.063-0.263-0.242-0.219-0.417l0.035-0.133c0.02-0.071,0.039-0.143,0.054-0.215c0.027-0.128,0.122-0.23,0.248-0.267   l0.119-0.034c0.13-0.036,0.26-0.073,0.389-0.119c0.819-0.295,1.676-0.431,2.505-0.563c0.285-0.045,0.572-0.091,0.855-0.142   c0.057-0.01,0.114-0.017,0.171-0.021c-1.093-0.563-2.139-0.987-3.169-0.947c-0.164,0.006-0.329-0.002-0.496-0.013l-0.151-0.009   c-0.177-0.009-0.32-0.148-0.333-0.324c-0.009-0.105-0.017-0.21-0.03-0.313c-0.016-0.132,0.044-0.261,0.154-0.335   c0.208-0.138,0.356-0.236,0.499-0.347c0.69-0.534,1.464-0.929,2.212-1.311c0.257-0.131,0.513-0.261,0.765-0.397   c0.051-0.028,0.103-0.052,0.155-0.073c-1.214-0.197-2.345-0.279-3.305,0.078c-0.191,0.071-0.39,0.122-0.588,0.173l-0.115,0.03   c-0.17,0.041-0.344-0.042-0.413-0.203c-0.021-0.051-0.045-0.099-0.07-0.148l-0.058-0.118c-0.057-0.122-0.039-0.266,0.045-0.371   c0.063-0.077,0.128-0.15,0.194-0.223c0.089-0.098,0.177-0.194,0.252-0.305c0.493-0.724,1.109-1.34,1.704-1.935   c0.202-0.202,0.404-0.404,0.601-0.61c0.04-0.042,0.082-0.081,0.125-0.117c-1.215,0.187-2.316,0.458-3.118,1.095   c-0.222,0.176-0.465,0.329-0.709,0.479c-0.149,0.088-0.337,0.061-0.451-0.068l-0.119-0.131c-0.093-0.1-0.12-0.245-0.07-0.372   c0.102-0.254,0.194-0.514,0.272-0.782c0.243-0.838,0.637-1.613,1.019-2.362c0.13-0.256,0.261-0.512,0.385-0.77   c0.026-0.052,0.053-0.102,0.084-0.15c-1.098,0.553-2.061,1.152-2.627,2.005c-0.16,0.241-0.351,0.484-0.6,0.768   c-0.111,0.127-0.296,0.157-0.443,0.071c-0.117-0.068-0.289-0.262-0.278-0.397c0.026-0.31,0.036-0.623,0.027-0.941   c-0.028-0.872,0.108-1.729,0.239-2.559c0.045-0.285,0.091-0.57,0.129-0.855c0.008-0.058,0.019-0.114,0.032-0.168   c-0.873,0.865-1.603,1.732-1.88,2.72c-0.093,0.337-0.218,0.68-0.371,1.02c-0.069,0.152-0.234,0.237-0.395,0.2   c-0.135-0.029-0.301-0.149-0.332-0.283c-0.088-0.39-0.179-0.712-0.286-1.012c-0.295-0.82-0.432-1.677-0.563-2.506   c-0.045-0.285-0.091-0.57-0.142-0.854c-0.01-0.057-0.017-0.114-0.021-0.17c-0.563,1.093-0.99,2.143-0.947,3.168   c0.016,0.366-0.002,0.753-0.053,1.179c-0.018,0.151-0.131,0.272-0.279,0.303c-0.148,0.031-0.3-0.037-0.376-0.169   c-0.221-0.383-0.422-0.687-0.632-0.958c-0.535-0.69-0.93-1.464-1.312-2.213c-0.13-0.256-0.261-0.512-0.396-0.764   c-0.028-0.052-0.052-0.103-0.073-0.155c-0.198,1.213-0.279,2.344,0.078,3.305c0.13,0.35,0.235,0.738,0.32,1.186   c0.029,0.149-0.041,0.299-0.174,0.373c-0.132,0.075-0.297,0.057-0.409-0.046l-0.133-0.121c-0.255-0.233-0.496-0.453-0.769-0.639   C9.923,5.919,9.308,5.304,8.713,4.71C8.51,4.506,8.307,4.304,8.101,4.106c-0.042-0.04-0.081-0.082-0.117-0.125   C8.17,5.196,8.442,6.297,9.079,7.1c0.228,0.287,0.44,0.609,0.65,0.985c0.074,0.132,0.055,0.298-0.048,0.409   C9.58,8.606,9.417,8.64,9.278,8.579c-0.404-0.18-0.746-0.307-1.074-0.403C7.365,7.933,6.59,7.538,5.839,7.156   c-0.255-0.13-0.511-0.26-0.768-0.384c-0.053-0.025-0.102-0.053-0.15-0.083c0.553,1.098,1.152,2.061,2.005,2.628   c0.308,0.205,0.61,0.446,0.923,0.737c0.111,0.103,0.144,0.266,0.081,0.404c-0.063,0.138-0.21,0.22-0.358,0.205   C7.136,10.617,6.772,10.6,6.427,10.61c-0.872,0.03-1.732-0.109-2.564-0.24c-0.283-0.045-0.566-0.09-0.849-0.128   c-0.058-0.007-0.114-0.019-0.168-0.032c0.865,0.873,1.732,1.604,2.72,1.88c0.353,0.098,0.715,0.234,1.105,0.415   c0.138,0.064,0.219,0.209,0.202,0.36c-0.017,0.151-0.128,0.274-0.276,0.305c-0.434,0.092-0.785,0.189-1.106,0.305   c-0.822,0.296-1.681,0.432-2.512,0.564c-0.283,0.045-0.567,0.09-0.848,0.141c-0.057,0.01-0.114,0.017-0.17,0.021   c1.092,0.562,2.131,0.988,3.168,0.947c0.366-0.018,0.75,0.001,1.179,0.053c0.151,0.018,0.273,0.13,0.303,0.279   c0.03,0.149-0.037,0.3-0.169,0.376c-0.382,0.222-0.687,0.423-0.957,0.632c-0.689,0.534-1.463,0.929-2.211,1.31   c-0.257,0.132-0.513,0.263-0.767,0.398c-0.051,0.029-0.103,0.052-0.155,0.073c1.213,0.198,2.346,0.279,3.305-0.078   c0.344-0.129,0.706-0.229,1.107-0.31c0.175-0.028,0.342,0.063,0.4,0.226c0.044,0.122,0.038,0.313-0.048,0.409l-0.164,0.183   c-0.198,0.218-0.385,0.424-0.542,0.656c-0.491,0.722-1.106,1.337-1.701,1.932C4.506,21.49,4.303,21.693,4.105,21.9   c-0.04,0.042-0.083,0.081-0.126,0.117c1.215-0.187,2.317-0.458,3.12-1.096c0.256-0.204,0.539-0.394,0.863-0.582   c0.154-0.091,0.352-0.049,0.459,0.093c0.076,0.1,0.145,0.304,0.096,0.42c-0.148,0.349-0.257,0.649-0.342,0.943   c-0.244,0.839-0.639,1.615-1.021,2.365c-0.13,0.256-0.26,0.511-0.384,0.768c-0.025,0.052-0.053,0.101-0.083,0.15   c1.098-0.553,2.061-1.152,2.628-2.005c0.18-0.272,0.387-0.519,0.565-0.725c0.12-0.138,0.326-0.16,0.472-0.055   c0.1,0.072,0.283,0.285,0.274,0.407c-0.021,0.288-0.027,0.578-0.018,0.872c0.028,0.873-0.108,1.732-0.24,2.565   c-0.045,0.282-0.09,0.566-0.128,0.849c-0.007,0.058-0.019,0.114-0.032,0.168c0.873-0.865,1.604-1.732,1.88-2.719   c0.067-0.242,0.161-0.475,0.256-0.709C12.402,23.582,12.555,23.469,12.707,23.469z M24.628,16.859h0.009H24.628z"></path><path class="st0" d="M12.707,23.469c0.028,0,0.056,0.004,0.083,0.012l0.217,0.055c0.121,0.033,0.216,0.13,0.248,0.252   c0.063,0.242,0.132,0.483,0.218,0.722c0.295,0.821,0.431,1.68,0.563,2.51c0.045,0.283,0.09,0.567,0.141,0.849   c0.01,0.057,0.017,0.114,0.021,0.171c0.563-1.093,0.99-2.143,0.947-3.169c-0.008-0.186,0.003-0.372,0.015-0.56l0.008-0.139   c0.01-0.184,0.161-0.33,0.345-0.332c0.079-0.002,0.157-0.007,0.235-0.012c0.129,0.001,0.298,0.05,0.367,0.154   c0.124,0.189,0.24,0.365,0.37,0.533c0.533,0.688,0.928,1.461,1.309,2.208c0.131,0.258,0.262,0.514,0.398,0.768   c0.029,0.051,0.052,0.103,0.073,0.155c0.198-1.213,0.279-2.344-0.078-3.305c-0.053-0.143-0.092-0.291-0.131-0.441l-0.04-0.152   c-0.049-0.177,0.046-0.363,0.22-0.425l0.112-0.04c0.081-0.028,0.161-0.055,0.24-0.089c0.116-0.047,0.252-0.031,0.352,0.047   c0.069,0.054,0.134,0.112,0.198,0.17c0.069,0.062,0.136,0.124,0.212,0.177c0.724,0.492,1.34,1.108,1.936,1.703   c0.202,0.202,0.403,0.404,0.61,0.601c0.042,0.04,0.081,0.083,0.117,0.126c-0.187-1.215-0.459-2.317-1.096-3.119   c-0.083-0.104-0.155-0.218-0.228-0.332l-0.089-0.138c-0.102-0.152-0.07-0.358,0.074-0.472c0.096-0.076,0.189-0.156,0.281-0.237   c0.095-0.086,0.229-0.111,0.35-0.068l0.14,0.051c0.115,0.042,0.229,0.085,0.348,0.119c0.836,0.243,1.611,0.637,2.361,1.019   c0.256,0.13,0.512,0.261,0.769,0.385c0.053,0.026,0.102,0.053,0.151,0.084c-0.553-1.098-1.152-2.062-2.005-2.627   c-0.11-0.073-0.211-0.156-0.313-0.24l-0.125-0.101c-0.144-0.112-0.177-0.315-0.08-0.467c0.067-0.105,0.132-0.213,0.195-0.322   c0.066-0.112,0.19-0.174,0.317-0.175l0.121,0.004c0.127,0.005,0.255,0.01,0.383,0.007c0.873-0.03,1.73,0.109,2.56,0.239   c0.285,0.045,0.57,0.091,0.855,0.129c0.058,0.008,0.114,0.019,0.168,0.032c-0.865-0.873-1.732-1.603-2.719-1.88   c-0.137-0.037-0.271-0.09-0.404-0.142l-0.147-0.057c-0.168-0.063-0.263-0.242-0.219-0.417l0.035-0.133   c0.02-0.071,0.039-0.143,0.054-0.215c0.027-0.128,0.122-0.23,0.248-0.267l0.119-0.034c0.13-0.036,0.26-0.073,0.389-0.119   c0.819-0.295,1.676-0.431,2.505-0.563c0.285-0.045,0.572-0.091,0.855-0.142c0.057-0.01,0.114-0.017,0.171-0.021   c-1.093-0.563-2.139-0.987-3.169-0.947c-0.164,0.006-0.329-0.002-0.496-0.013l-0.151-0.009c-0.177-0.009-0.32-0.148-0.333-0.324   c-0.009-0.105-0.017-0.21-0.03-0.313c-0.016-0.132,0.044-0.261,0.154-0.335c0.208-0.138,0.356-0.236,0.499-0.347   c0.69-0.534,1.464-0.929,2.212-1.311c0.257-0.131,0.513-0.261,0.765-0.397c0.051-0.028,0.103-0.052,0.155-0.073   c-1.214-0.197-2.345-0.279-3.305,0.078c-0.191,0.071-0.39,0.122-0.588,0.173l-0.115,0.03c-0.17,0.041-0.344-0.042-0.413-0.203   c-0.021-0.051-0.045-0.099-0.07-0.148l-0.058-0.118c-0.057-0.122-0.039-0.266,0.045-0.371c0.063-0.077,0.128-0.15,0.194-0.223   c0.089-0.098,0.177-0.194,0.252-0.305c0.493-0.724,1.109-1.34,1.704-1.935c0.202-0.202,0.404-0.404,0.601-0.61   c0.04-0.042,0.082-0.081,0.125-0.117c-1.215,0.187-2.316,0.458-3.118,1.095c-0.222,0.176-0.465,0.329-0.709,0.479   c-0.149,0.088-0.337,0.061-0.451-0.068l-0.119-0.131c-0.093-0.1-0.12-0.245-0.07-0.372c0.102-0.254,0.194-0.514,0.272-0.782   c0.243-0.838,0.637-1.613,1.019-2.362c0.13-0.256,0.261-0.512,0.385-0.77c0.026-0.052,0.053-0.102,0.084-0.15   c-1.098,0.553-2.061,1.152-2.627,2.005c-0.16,0.241-0.351,0.484-0.6,0.768c-0.111,0.127-0.296,0.157-0.443,0.071   c-0.117-0.068-0.289-0.262-0.278-0.397c0.026-0.31,0.036-0.623,0.027-0.941c-0.028-0.872,0.108-1.729,0.239-2.559   c0.045-0.285,0.091-0.57,0.129-0.855c0.008-0.058,0.019-0.114,0.032-0.168c-0.873,0.865-1.603,1.732-1.88,2.72   c-0.093,0.337-0.218,0.68-0.371,1.02c-0.069,0.152-0.234,0.237-0.395,0.2c-0.135-0.029-0.301-0.149-0.332-0.283   c-0.088-0.39-0.179-0.712-0.286-1.012c-0.295-0.82-0.432-1.677-0.563-2.506c-0.045-0.285-0.091-0.57-0.142-0.854   c-0.01-0.057-0.017-0.114-0.021-0.17c-0.563,1.093-0.99,2.143-0.947,3.168c0.016,0.366-0.002,0.753-0.053,1.179   c-0.018,0.151-0.131,0.272-0.279,0.303c-0.148,0.031-0.3-0.037-0.376-0.169c-0.221-0.383-0.422-0.687-0.632-0.958   c-0.535-0.69-0.93-1.464-1.312-2.213c-0.13-0.256-0.261-0.512-0.396-0.764c-0.028-0.052-0.052-0.103-0.073-0.155   c-0.198,1.213-0.279,2.344,0.078,3.305c0.13,0.35,0.235,0.738,0.32,1.186c0.029,0.149-0.041,0.299-0.174,0.373   c-0.132,0.075-0.297,0.057-0.409-0.046l-0.133-0.121c-0.255-0.233-0.496-0.453-0.769-0.639C9.923,5.919,9.308,5.304,8.713,4.709   C8.51,4.506,8.307,4.304,8.101,4.106C8.058,4.066,8.019,4.024,7.983,3.98C8.17,5.195,8.442,6.297,9.079,7.1   c0.228,0.287,0.44,0.609,0.65,0.985c0.074,0.132,0.055,0.298-0.048,0.409C9.58,8.606,9.417,8.64,9.278,8.579   c-0.404-0.18-0.746-0.307-1.074-0.403C7.365,7.932,6.59,7.538,5.839,7.155c-0.255-0.13-0.511-0.26-0.768-0.384   c-0.053-0.025-0.102-0.053-0.15-0.083c0.553,1.098,1.152,2.061,2.005,2.628c0.308,0.205,0.61,0.446,0.923,0.737   c0.111,0.103,0.144,0.266,0.081,0.404c-0.063,0.138-0.21,0.22-0.358,0.205c-0.438-0.045-0.801-0.062-1.146-0.052   c-0.872,0.03-1.732-0.109-2.564-0.24c-0.283-0.045-0.566-0.09-0.849-0.128c-0.058-0.007-0.114-0.019-0.168-0.032   c0.865,0.873,1.732,1.604,2.72,1.88c0.353,0.098,0.715,0.234,1.105,0.415c0.138,0.064,0.219,0.209,0.202,0.36   c-0.017,0.151-0.128,0.274-0.276,0.305c-0.434,0.092-0.785,0.189-1.106,0.305c-0.822,0.296-1.681,0.432-2.512,0.564   c-0.283,0.045-0.567,0.09-0.848,0.141c-0.057,0.01-0.114,0.017-0.17,0.021c1.092,0.562,2.131,0.988,3.168,0.947   c0.366-0.018,0.75,0.001,1.179,0.053c0.151,0.018,0.273,0.13,0.303,0.279c0.03,0.149-0.037,0.3-0.169,0.376   c-0.382,0.222-0.687,0.423-0.957,0.632c-0.689,0.534-1.463,0.929-2.211,1.31c-0.257,0.132-0.513,0.263-0.767,0.398   c-0.051,0.029-0.103,0.052-0.155,0.073c1.213,0.198,2.346,0.279,3.305-0.078c0.344-0.129,0.706-0.229,1.107-0.31   c0.175-0.028,0.342,0.063,0.4,0.226c0.044,0.122,0.038,0.313-0.048,0.409l-0.164,0.183c-0.198,0.218-0.385,0.424-0.542,0.656   c-0.491,0.722-1.106,1.337-1.701,1.932C4.506,21.49,4.303,21.693,4.105,21.9c-0.04,0.042-0.083,0.081-0.126,0.117   c1.215-0.187,2.317-0.458,3.12-1.096c0.256-0.204,0.539-0.394,0.863-0.582c0.154-0.091,0.352-0.049,0.459,0.093   c0.076,0.1,0.145,0.304,0.096,0.42c-0.148,0.349-0.257,0.649-0.342,0.943c-0.244,0.839-0.639,1.615-1.021,2.365   c-0.13,0.256-0.26,0.511-0.384,0.768c-0.025,0.052-0.053,0.101-0.083,0.15c1.098-0.553,2.061-1.152,2.628-2.005   c0.18-0.272,0.387-0.519,0.565-0.725c0.12-0.138,0.326-0.16,0.472-0.055c0.1,0.072,0.283,0.285,0.274,0.407   c-0.021,0.288-0.027,0.578-0.018,0.872c0.028,0.873-0.108,1.732-0.24,2.565c-0.045,0.282-0.09,0.566-0.128,0.849   c-0.007,0.058-0.019,0.114-0.032,0.168c0.873-0.865,1.604-1.732,1.88-2.719c0.067-0.242,0.161-0.475,0.256-0.709   C12.402,23.582,12.555,23.469,12.707,23.469z"></path><circle class="st1" cx="15" cy="15.001" r="7.291"></circle><circle class="st2" cx="15" cy="15.001" r="6.044"></circle><path d="M14.999,23.085c-4.458,0-8.084-3.627-8.084-8.085c0-4.458,3.626-8.084,8.084-8.084c4.458,0,8.085,3.626,8.085,8.084   C23.084,19.458,19.457,23.085,14.999,23.085z M14.999,7.722c-4.014,0-7.278,3.265-7.278,7.278s3.265,7.278,7.278,7.278   s7.278-3.265,7.278-7.278S19.013,7.722,14.999,7.722z"></path><path d="M20.916,15.19c-0.195,0-0.352-0.158-0.352-0.353c0-3.02-2.457-5.477-5.478-5.477c-0.195,0-0.353-0.158-0.353-0.353   s0.158-0.353,0.353-0.353c3.409,0,6.182,2.774,6.182,6.183C21.268,15.032,21.11,15.19,20.916,15.19z"></path><ellipse class="st3" cx="13.803" cy="12.977" rx="3.838" ry="2.697" transform="matrix(0.9743 -0.2251 0.2251 0.9743 -2.5664 3.4394)"></ellipse></g></svg>